<?xml version="1.0" standalone="no"?>
<!DOCTYPE svg PUBLIC "-//W3C//DTD SVG 20010904//EN"
 "http://www.w3.org/TR/2001/REC-SVG-20010904/DTD/svg10.dtd">
<svg version="1.0" xmlns="http://www.w3.org/2000/svg"
 width="2000.000000pt" height="1500.000000pt" viewBox="0 0 2000.000000 1500.000000"
 preserveAspectRatio="xMidYMid meet">

<g transform="translate(0.000000,1500.000000) scale(0.100000,-0.100000)"
fill="#000000" stroke="none">
<path d="M9720 12480 c-30 -4 -47 -7 -38 -8 10 -1 20 -12 22 -24 6 -25 25
-232 22 -235 -4 -5 -257 -25 -262 -21 -3 3 -10 63 -17 132 l-11 126 -46 0
c-27 0 -40 -4 -32 -8 15 -10 67 -521 55 -533 -5 -4 -15 -9 -23 -12 -8 -2 -2
-3 14 -1 16 2 49 4 75 5 35 0 41 2 25 9 -18 7 -22 21 -31 132 -6 67 -10 124
-9 125 5 5 256 26 261 22 7 -8 27 -230 21 -245 -4 -11 6 -14 47 -14 34 0 47 3
38 9 -10 6 -20 76 -37 252 -30 309 -30 287 4 292 47 7 -14 5 -78 -3z"/>
<path d="M9963 12483 l27 -4 -5 -247 c-4 -136 -8 -257 -11 -269 -2 -13 -13
-23 -27 -26 -12 -2 7 -4 43 -4 36 0 53 2 38 4 l-28 4 1 132 c1 73 4 184 8 247
l6 115 161 -254 c88 -140 165 -256 171 -258 11 -4 23 175 23 356 0 161 6 189
39 194 14 2 -5 4 -44 4 -38 0 -58 -2 -42 -4 l27 -4 -1 -152 c-1 -84 -4 -177
-8 -207 l-6 -55 -36 55 c-19 30 -81 128 -138 218 l-103 162 -62 -1 c-33 -1
-49 -4 -33 -6z"/>
<path d="M9458 12453 c6 -2 18 -2 25 0 6 3 1 5 -13 5 -14 0 -19 -2 -12 -5z"/>
<path d="M10558 12453 c12 -2 22 -7 22 -9 0 -3 -13 -120 -30 -261 -16 -140
-30 -257 -30 -259 0 -2 -15 -5 -32 -5 -26 -1 -22 -3 17 -9 73 -12 113 -12 95
0 -12 8 -11 42 14 262 15 139 30 256 33 261 2 4 14 8 26 8 30 2 -70 17 -108
17 -23 -1 -24 -2 -7 -5z"/>
<path d="M9188 12411 c-5 -15 -12 -22 -21 -18 -77 29 -191 9 -253 -45 -61 -54
-79 -100 -79 -203 0 -77 4 -99 28 -150 52 -111 119 -159 227 -159 66 0 103 13
163 58 29 21 29 21 44 1 15 -19 15 -19 10 5 -3 14 -9 44 -13 68 -8 51 -24 66
-24 22 0 -45 -23 -82 -67 -107 -110 -62 -209 -22 -267 106 -52 116 -52 255 -1
332 31 47 96 74 160 66 49 -5 77 -24 106 -72 22 -35 23 -23 6 60 -10 48 -14
55 -19 36z"/>
<path d="M10950 12390 c-120 -22 -200 -131 -208 -288 -7 -127 36 -210 134
-257 42 -20 128 -25 182 -12 28 8 33 6 40 -14 8 -20 10 -19 15 17 4 21 9 55
13 74 l6 35 -20 -30 c-33 -52 -59 -68 -115 -73 -140 -11 -219 105 -189 279 23
132 72 209 156 244 84 35 196 -25 211 -115 7 -40 9 -42 15 -20 4 14 10 48 14
75 5 37 4 46 -4 33 -10 -16 -16 -14 -73 16 -66 36 -119 47 -177 36z"/>
<path d="M8490 12256 c-85 -29 -149 -55 -142 -57 11 -4 172 -473 172 -501 0
-4 -11 -10 -25 -14 -14 -4 -24 -8 -21 -11 2 -3 60 13 128 35 67 22 149 48 181
57 47 14 57 20 52 33 -4 10 -14 37 -22 62 -9 25 -20 50 -26 55 -9 9 -7 -12 10
-96 5 -26 2 -28 -103 -63 -59 -20 -108 -35 -109 -33 -13 16 -75 231 -69 237 5
4 45 19 89 33 80 25 105 23 105 -9 0 -7 4 -15 9 -18 5 -3 0 22 -10 57 -26 82
-29 88 -26 48 l2 -34 -85 -29 c-46 -15 -88 -27 -93 -25 -9 3 -77 201 -77 224
0 10 49 29 182 69 13 4 24 -8 43 -46 15 -29 28 -50 31 -47 6 6 -28 127 -35
126 -3 0 -76 -24 -161 -53z"/>
<path d="M11350 12025 c-143 -183 -180 -225 -200 -226 -22 0 -21 -2 10 -13 19
-7 46 -16 60 -19 22 -6 22 -5 -3 6 l-28 13 56 72 c31 40 61 72 66 72 6 0 50
-12 99 -27 l89 -26 3 -94 3 -95 -27 6 c-49 10 -30 -3 30 -20 31 -9 64 -19 72
-22 12 -5 13 -3 4 9 -7 9 -16 118 -24 294 -11 272 -14 295 -28 295 -4 0 -86
-101 -182 -225z m145 -124 c-5 -5 -155 38 -167 48 -4 4 30 53 75 111 l82 105
7 -129 c4 -72 5 -132 3 -135z"/>
<path d="M8178 12150 c-20 -11 -103 -47 -185 -81 -81 -34 -149 -62 -150 -64
-2 -1 11 -30 28 -64 16 -35 32 -61 34 -59 2 2 -2 28 -10 58 -8 30 -15 56 -15
58 0 5 110 52 123 52 13 0 207 -446 207 -475 0 -20 4 -19 75 16 33 16 51 27
40 23 -11 -3 -26 -7 -34 -8 -10 -1 -49 79 -117 237 l-103 239 55 24 c30 13 61
24 70 24 8 0 27 -20 42 -45 15 -25 30 -45 34 -45 3 0 -5 29 -20 65 -14 36 -28
65 -31 65 -3 -1 -23 -10 -43 -20z"/>
<path d="M11876 12116 c9 -22 -187 -477 -209 -485 -12 -5 9 -18 75 -45 51 -22
120 -52 152 -68 33 -15 60 -27 61 -25 15 28 51 137 46 137 -4 0 -20 -22 -35
-50 -15 -27 -33 -50 -41 -50 -11 0 -174 66 -182 73 -1 1 44 110 101 242 86
204 105 240 121 238 11 -2 -4 8 -34 22 -63 29 -62 29 -55 11z"/>
<path d="M9708 11923 c7 -3 16 -2 19 1 4 3 -2 6 -13 5 -11 0 -14 -3 -6 -6z"/>
<path d="M7545 11850 c-3 -6 1 -7 9 -4 18 7 21 14 7 14 -6 0 -13 -4 -16 -10z"/>
<path d="M12458 11848 c12 -6 22 -16 22 -23 0 -20 -250 -455 -261 -455 -6 0
-20 5 -32 11 -44 23 -1 -9 55 -40 46 -26 55 -28 52 -14 -5 19 226 439 252 459
12 10 4 17 -41 43 -30 17 -58 31 -62 30 -5 0 2 -5 15 -11z"/>
<path d="M7493 11819 c-36 -23 -45 -36 -14 -19 11 5 22 10 25 10 2 0 53 -77
112 -171 89 -142 108 -180 112 -220 6 -60 -20 -105 -79 -138 -52 -29 -108 -31
-146 -3 -24 17 -220 317 -239 365 -4 12 0 23 12 33 25 21 1 8 -71 -38 -33 -21
-55 -38 -48 -38 6 0 15 5 18 10 3 6 10 10 15 10 4 0 54 -73 109 -162 113 -181
125 -197 163 -222 85 -55 258 24 287 132 16 58 -1 99 -114 282 -56 91 -104
170 -106 177 -3 9 -14 6 -36 -8z"/>
<path d="M12577 11779 c7 -7 15 -10 18 -7 3 3 -2 9 -12 12 -14 6 -15 5 -6 -5z"/>
<path d="M12699 11702 l24 -19 -148 -214 c-81 -118 -149 -216 -151 -218 -2 -2
-15 1 -29 7 -36 17 -31 9 13 -20 31 -21 38 -23 38 -9 0 14 239 370 266 396 7
7 9 -87 7 -295 -3 -230 -1 -305 8 -305 6 0 78 97 159 215 81 118 149 217 151
220 2 2 13 -1 23 -8 38 -24 19 -3 -24 28 -48 33 -72 41 -37 13 l22 -18 -106
-155 c-59 -85 -113 -162 -121 -170 -12 -12 -14 21 -14 245 l0 260 -37 25 c-53
35 -72 45 -44 22z"/>
<path d="M7065 11550 c-6 -9 -253 -203 -295 -231 l-24 -16 45 -51 c24 -29 47
-52 51 -52 4 0 -6 23 -23 51 -34 59 -32 63 42 115 34 23 42 25 53 13 18 -19
290 -371 300 -388 6 -10 0 -22 -20 -40 -44 -39 -19 -22 66 44 97 75 120 102
35 40 -19 -13 -28 -4 -175 186 -85 110 -157 204 -158 209 -4 11 25 39 76 71
l34 22 44 -44 c54 -53 56 -45 7 26 -39 55 -47 62 -58 45z"/>
<path d="M8160 11545 c-14 -8 -20 -14 -15 -14 6 0 21 6 35 14 14 8 21 14 15
14 -5 0 -21 -6 -35 -14z"/>
<path d="M13166 11300 c-58 -18 -106 -83 -106 -143 0 -18 18 -70 40 -116 52
-107 54 -160 9 -202 -96 -89 -256 44 -206 172 19 47 11 44 -42 -20 -35 -42
-38 -48 -18 -44 18 3 27 -6 52 -53 51 -99 147 -143 233 -108 96 40 109 119 44
260 -53 115 -55 153 -8 200 40 40 75 44 124 14 63 -39 89 -115 57 -170 -27
-47 -15 -45 30 5 49 55 54 65 28 59 -14 -4 -24 8 -41 46 -37 80 -121 124 -196
100z"/>
<path d="M6652 11214 c-20 -20 -29 -31 -20 -24 24 17 24 15 37 -169 6 -85 13
-156 15 -159 3 -2 15 3 28 12 38 27 78 19 168 -34 94 -55 124 -60 164 -29 33
26 35 69 4 95 l-23 19 18 -22 c21 -25 19 -51 -4 -66 -12 -8 -37 2 -105 41
-100 58 -147 66 -201 33 l-31 -20 -6 32 c-3 18 -8 92 -12 164 -5 100 -4 136 6
148 24 29 0 15 -38 -21z"/>
<path d="M6450 11019 c-36 -34 -56 -54 -44 -45 11 9 23 16 26 16 3 0 87 -86
188 -190 182 -190 182 -191 164 -212 -38 -43 18 -2 66 47 25 27 35 41 22 34
-23 -14 -30 -7 -202 171 -99 102 -179 189 -180 194 0 5 7 18 17 28 33 37 5 16
-57 -43z"/>
<path d="M13468 11024 c-27 -28 -48 -54 -48 -58 0 -4 21 9 46 29 26 19 50 35
54 35 9 0 36 -24 74 -67 l29 -32 -134 -129 c-74 -70 -160 -152 -192 -182 l-59
-55 -29 33 c-16 18 -29 29 -29 24 0 -4 39 -46 87 -92 48 -47 72 -68 53 -48
l-34 38 135 128 c74 70 160 152 192 182 l58 53 39 -38 c56 -55 58 -68 15 -120
-46 -57 -34 -57 30 -1 l50 44 -85 89 c-47 48 -112 117 -145 153 l-60 65 -47
-51z"/>
<path d="M6289 10858 c-19 -24 -39 -50 -43 -58 -4 -8 1 -4 12 9 l20 25 47 -38
c178 -147 272 -231 288 -259 31 -57 19 -118 -36 -175 -37 -39 -84 -54 -129
-41 -19 5 -104 68 -196 145 l-163 137 16 26 c14 23 13 23 -10 -4 -52 -60 -89
-110 -68 -91 22 18 23 18 184 -118 101 -84 176 -140 198 -146 104 -28 241 88
241 205 0 66 -25 98 -178 226 -81 67 -153 128 -161 135 -12 11 -12 16 3 38 24
38 15 32 -25 -16z"/>
<path d="M13861 10687 c8 -17 9 -31 3 -36 -28 -25 -372 -309 -383 -315 -7 -5
-21 0 -34 11 l-21 18 22 -30 c12 -16 36 -46 54 -65 18 -20 30 -31 26 -26 -22
29 -12 39 314 305 78 64 78 64 101 45 12 -11 0 8 -27 41 -68 83 -69 84 -55 52z"/>
<path d="M13955 10478 c-65 -52 -70 -69 -12 -35 25 15 52 27 61 27 16 0 86
-85 86 -104 0 -6 -96 -78 -212 -159 l-211 -148 -24 28 c-14 15 1 -10 33 -57
62 -92 90 -127 56 -69 -12 20 -22 39 -22 42 0 5 134 102 346 250 l81 57 37
-55 c20 -30 36 -58 36 -62 0 -4 -19 -27 -42 -51 -49 -51 -45 -51 33 -3 l55 35
-61 81 c-33 45 -87 122 -120 172 -33 50 -62 92 -65 92 -3 0 -27 -18 -55 -41z"/>
<path d="M9660 10404 c-743 -89 -1422 -455 -1896 -1023 -378 -452 -602 -973
-669 -1556 -30 -262 -16 -622 35 -885 38 -192 114 -441 181 -588 l30 -66 29
36 c39 47 116 96 188 118 31 10 69 23 83 30 l26 12 6 181 c4 99 7 208 7 243
l0 63 -57 7 c-78 9 -95 19 -91 52 3 27 3 27 81 25 l77 -3 0 53 c0 29 4 88 9
132 5 44 12 113 15 153 l6 73 -69 -2 c-76 -2 -91 3 -91 31 0 30 36 43 101 36
l58 -6 5 43 c3 23 11 126 18 229 l13 187 -80 3 -80 3 0 30 0 30 82 3 82 3 5
42 c3 23 10 98 16 167 23 261 47 417 75 478 74 163 233 215 291 95 17 -36 28
-154 34 -363 l2 -65 28 105 c53 196 90 271 140 289 59 20 103 -17 130 -109 15
-50 50 -305 50 -363 0 -32 12 11 26 89 30 180 101 352 154 374 42 17 69 3 109
-56 39 -60 46 -85 67 -269 19 -162 20 -308 7 -650 -7 -207 -3 -461 15 -810 l7
-150 23 180 c12 99 22 210 22 246 0 37 6 102 14 145 37 202 54 383 66 729 7
214 21 383 46 572 3 25 16 56 30 73 21 25 33 30 69 30 57 0 89 -36 104 -117
23 -120 28 -138 33 -123 3 8 18 93 32 187 35 226 48 268 89 293 37 23 56 25
92 8 34 -16 64 -65 71 -122 8 -59 39 -86 98 -86 22 0 46 4 52 8 6 4 14 39 17
79 4 39 10 78 13 87 5 13 -7 16 -77 18 -63 2 -84 7 -92 20 -8 12 -7 21 2 32
10 12 33 16 96 16 l83 0 6 30 c3 17 8 43 12 59 6 32 -10 41 -78 41 -44 0 -73
31 -57 62 8 15 22 18 83 18 l73 0 22 84 c28 107 53 136 114 136 62 0 88 -32
124 -147 l28 -93 66 0 c74 0 102 -17 82 -48 -7 -13 -28 -18 -77 -20 l-68 -3 6
-37 c3 -20 8 -59 12 -86 l7 -48 63 6 c71 7 104 -3 104 -34 0 -26 -7 -29 -89
-36 -77 -7 -76 -6 -65 -76 l7 -38 59 0 c67 0 74 5 145 108 47 67 75 82 122 62
50 -20 61 -61 61 -213 0 -142 15 -285 31 -302 15 -15 43 8 55 46 6 19 19 68
29 109 29 124 54 159 113 160 24 0 42 -8 61 -28 31 -30 47 -103 76 -342 38
-312 149 -1041 184 -1210 l17 -85 7 380 c7 381 28 800 48 950 5 44 19 119 30
167 17 72 26 92 51 113 59 50 133 20 174 -70 14 -30 44 -136 67 -235 22 -99
44 -174 48 -168 4 7 19 85 34 173 28 176 37 204 73 246 17 21 33 29 57 29 65
0 109 -84 137 -263 7 -44 15 -72 19 -65 4 8 30 76 58 153 59 163 84 195 152
195 89 0 123 -47 163 -225 24 -106 63 -356 68 -440 l3 -40 72 -3 c77 -3 99
-16 88 -52 -6 -18 -15 -20 -82 -20 l-75 0 6 -87 c3 -49 8 -141 12 -206 l6
-118 69 3 c72 3 93 -7 87 -38 -4 -21 -38 -31 -112 -33 l-49 -1 6 -57 c4 -32 9
-123 13 -202 l7 -143 62 6 c75 8 95 1 95 -29 0 -33 -17 -42 -92 -50 l-68 -7 0
-247 0 -246 74 -23 c112 -35 217 -91 241 -129 11 -18 23 -32 27 -33 3 0 20 39
38 88 125 346 180 657 180 1022 0 109 -7 253 -15 325 -77 671 -364 1264 -840
1740 -473 473 -1073 764 -1735 840 -166 19 -509 18 -670 -1z"/>
<path d="M5908 10350 c-25 -13 -58 -51 -101 -112 -63 -92 -93 -140 -64 -105 8
9 20 17 26 17 17 0 431 -281 431 -292 0 -5 -5 -19 -11 -31 -20 -39 7 -4 71 91
71 108 90 148 90 194 0 106 -126 174 -218 118 -18 -11 -35 -20 -37 -20 -3 0
-5 18 -5 40 0 32 -7 48 -33 76 -41 45 -94 54 -149 24z m78 -46 c44 -21 74 -63
74 -105 0 -33 -45 -123 -59 -117 -19 7 -191 124 -191 129 0 3 14 25 30 48 45
61 85 74 146 45z m265 -128 c44 -30 73 -87 64 -124 -3 -15 -22 -51 -41 -80
l-34 -52 -108 71 c-59 40 -109 73 -111 75 -7 6 61 104 82 119 34 24 107 19
148 -9z"/>
<path d="M14303 10068 c1 -7 -63 -49 -143 -94 -221 -126 -229 -131 -250 -166
-43 -70 -13 -188 65 -256 76 -67 120 -59 335 62 94 53 175 96 182 96 6 0 17
-8 25 -17 8 -10 4 2 -9 27 -13 27 -23 39 -25 29 -5 -22 -345 -210 -392 -216
-123 -17 -217 162 -129 245 13 11 102 66 198 121 l175 100 19 -22 c22 -26 20
-20 -17 51 -26 50 -40 66 -34 40z"/>
<path d="M5627 9945 l-15 -31 165 -183 c91 -100 163 -184 161 -186 -1 -1 -113
8 -247 21 -135 13 -246 23 -247 21 -1 -1 -14 -27 -28 -57 -19 -38 -21 -48 -8
-31 l19 23 234 -118 c129 -66 233 -123 232 -129 -1 -5 -4 -19 -8 -30 -3 -11 8
6 25 39 17 32 29 60 27 63 -3 2 -8 -5 -12 -16 -3 -12 -11 -21 -16 -21 -8 0
-389 187 -398 196 -12 11 24 10 249 -11 178 -17 247 -20 252 -12 4 6 -30 51
-78 104 -46 51 -122 135 -169 187 -47 51 -85 96 -85 100 0 11 409 -198 412
-211 2 -7 18 16 36 50 18 34 25 52 15 39 l-19 -23 -241 123 -241 124 -15 -31z"/>
<path d="M14499 9583 c-65 -35 -62 -36 31 -17 29 6 31 4 56 -50 14 -31 24 -61
22 -67 -3 -9 -456 -209 -473 -209 -2 0 -12 12 -20 28 -19 33 -15 15 16 -56 12
-29 25 -48 29 -42 6 10 462 210 479 210 9 0 51 -99 51 -120 0 -8 -24 -30 -52
-48 -61 -39 -35 -35 89 13 2 1 -18 48 -43 106 -26 57 -63 145 -83 195 l-37 91
-65 -34z"/>
<path d="M9949 9453 c-16 -40 -75 -339 -92 -460 l-14 -103 77 0 c43 0 98 3
124 6 l47 7 -6 56 c-28 243 -49 382 -68 444 -26 81 -49 98 -68 50z"/>
<path d="M5332 9353 c-5 -16 -19 -52 -31 -80 -11 -29 -18 -53 -16 -53 3 0 10
12 15 26 6 14 16 24 23 21 6 -3 113 -44 237 -93 124 -48 230 -91 237 -96 6 -5
9 -16 6 -24 -3 -8 -3 -14 0 -14 3 0 12 19 20 43 8 23 18 51 22 62 5 15 4 16
-3 6 -8 -11 -55 4 -253 82 -235 91 -244 96 -242 121 2 33 -3 33 -15 -1z"/>
<path d="M5250 9146 c0 -9 -77 -260 -116 -376 -4 -12 10 -20 60 -33 87 -23 91
-21 24 14 -32 16 -58 33 -58 37 0 5 9 36 21 69 l20 61 77 -24 c42 -13 154 -48
247 -77 l170 -54 -2 -34 c-1 -25 5 -14 23 40 13 41 21 77 19 80 -3 2 -5 -1 -5
-7 0 -7 -7 -12 -15 -12 -17 0 -484 146 -491 153 -3 2 6 33 19 68 25 69 19 66
107 53 58 -9 51 -2 -32 30 -48 18 -68 21 -68 12z"/>
<path d="M14161 9145 c0 -5 6 -21 14 -35 8 -14 14 -20 14 -15 0 6 -6 21 -14
35 -8 14 -14 21 -14 15z"/>
<path d="M14755 9105 c-13 -19 -472 -168 -498 -161 -11 3 -17 0 -14 -7 2 -7
26 -82 53 -169 45 -144 50 -155 68 -146 10 6 42 18 70 29 l51 18 -69 -2 -70
-2 -32 103 c-18 56 -29 104 -26 106 6 3 83 28 204 66 26 8 27 7 54 -73 15 -45
29 -87 31 -94 3 -7 -10 -19 -29 -27 -53 -23 -18 -18 58 8 64 23 66 24 29 23
l-40 -2 -27 80 c-14 44 -27 85 -27 90 -1 10 227 91 233 83 11 -12 64 -192 60
-200 -3 -4 -26 -19 -52 -33 -26 -13 -41 -24 -34 -25 19 0 106 22 114 29 3 3
-17 77 -45 164 -39 119 -54 153 -62 142z"/>
<path d="M9477 9003 c-8 -14 -36 -165 -57 -306 -22 -150 -27 -165 -66 -196
-37 -29 -59 -26 -87 12 -31 41 -35 55 -47 137 -12 87 -27 127 -41 113 -19 -19
-49 -325 -59 -593 -12 -347 -31 -558 -65 -744 -8 -43 -15 -109 -15 -146 0
-106 -56 -534 -75 -570 -11 -21 -18 -69 -22 -141 l-6 -109 54 0 c30 0 70 3 90
6 l37 6 7 91 c12 163 63 271 153 328 52 33 87 36 122 12 84 -58 121 -159 136
-366 l7 -99 136 7 c75 4 139 10 143 14 7 6 22 196 33 431 3 69 13 186 21 260
8 74 18 205 24 290 13 217 50 351 107 386 40 25 77 25 123 2 79 -40 102 -112
120 -373 5 -71 22 -238 39 -370 16 -132 32 -301 36 -375 3 -74 8 -161 11 -193
l6 -58 96 3 97 3 17 153 c14 129 21 160 43 198 28 48 85 83 134 84 40 0 104
-37 129 -74 30 -44 61 -143 69 -218 5 -47 9 -58 22 -54 9 3 51 8 94 12 l78 6
-5 62 c-4 33 -8 111 -11 171 -3 71 -21 194 -50 345 -66 344 -166 986 -210
1350 -18 151 -40 278 -49 287 -13 13 -24 -13 -45 -102 -37 -154 -39 -161 -81
-199 -53 -47 -87 -48 -128 -2 -17 19 -33 47 -36 63 -17 81 -26 182 -26 305 0
75 -4 139 -8 142 -4 2 -28 -25 -52 -61 -75 -110 -62 -106 -348 -115 -136 -4
-266 -12 -290 -18 -23 -5 -59 -10 -80 -10 -83 1 -172 70 -172 135 0 58 -35
108 -53 78z m211 -375 c19 -19 15 -66 -7 -78 -50 -26 -88 4 -76 61 6 25 11 29
39 29 18 0 37 -5 44 -12z m330 0 c30 -30 2 -88 -42 -88 -34 0 -49 24 -42 65 6
31 10 35 39 35 18 0 38 -5 45 -12z m330 0 c29 -29 -1 -88 -43 -88 -33 0 -48
24 -41 65 6 31 10 35 39 35 18 0 38 -5 45 -12z m-844 -337 c33 -36 -8 -90 -59
-77 -28 7 -36 27 -28 66 5 26 10 30 38 30 19 0 39 -8 49 -19z m376 5 c18 -23
8 -59 -22 -76 -46 -25 -78 8 -64 66 5 19 13 24 40 24 18 0 39 -7 46 -14z m375
-2 c23 -23 15 -56 -17 -74 -21 -11 -32 -12 -45 -4 -19 11 -29 55 -19 80 7 19
61 18 81 -2z m380 -8 c28 -42 -14 -87 -64 -71 -24 7 -32 28 -24 65 5 26 10 30
39 30 24 0 38 -7 49 -24z m-235 -320 c30 -37 -27 -105 -67 -80 -19 11 -29 55
-19 80 7 19 70 18 86 0z m374 -2 c21 -21 20 -40 -4 -64 -45 -45 -103 -5 -80
55 11 30 59 35 84 9z m-1376 -40 c47 -33 3 -105 -52 -85 -39 15 -28 101 12
101 10 0 28 -7 40 -16z m391 -9 c34 -34 -28 -98 -72 -73 -20 11 -23 68 -5 86
15 15 56 8 77 -13z m-429 -375 c31 -31 3 -80 -46 -80 -32 0 -47 24 -40 65 6
31 11 35 36 35 17 0 39 -9 50 -20z m374 4 c32 -31 8 -84 -38 -84 -39 0 -58 38
-40 84 8 21 58 21 78 0z m747 6 c12 -7 19 -21 19 -40 0 -31 -22 -50 -58 -50
-31 0 -45 25 -38 65 6 29 11 35 32 35 14 0 34 -5 45 -10z m383 -6 c32 -31 8
-84 -38 -84 -39 0 -58 38 -40 84 8 21 58 21 78 0z m-1552 -331 c10 -9 18 -24
18 -33 0 -27 -35 -52 -67 -48 -24 3 -28 8 -31 36 -2 19 -1 40 2 48 7 19 55 18
78 -3z m369 7 c12 -7 19 -21 19 -40 0 -31 -22 -50 -58 -50 -31 0 -45 25 -38
65 6 29 11 35 32 35 14 0 34 -5 45 -10z m859 -54 c18 -23 8 -59 -22 -76 -46
-25 -78 8 -64 66 5 19 13 24 40 24 18 0 39 -7 46 -14z m374 -2 c21 -21 20 -40
-4 -64 -23 -23 -50 -26 -68 -8 -13 13 -17 70 -5 81 12 13 62 7 77 -9z"/>
<path d="M7988 8790 c-44 -36 -73 -95 -87 -175 -26 -150 -66 -595 -96 -1050
-8 -132 -20 -278 -25 -325 -10 -88 -30 -524 -30 -667 l0 -83 180 0 c178 0 180
0 184 23 3 12 7 164 9 337 3 173 10 448 17 610 12 278 12 312 -9 590 -12 162
-28 395 -35 517 -12 226 -18 253 -55 253 -9 0 -33 -13 -53 -30z m3 -869 c20
-16 22 -23 14 -47 -20 -56 -95 -49 -95 9 0 56 37 74 81 38z m1 -378 c10 -9 18
-24 18 -33 0 -49 -92 -69 -98 -21 -7 45 6 71 35 71 14 0 35 -7 45 -17z m0
-470 c10 -9 18 -24 18 -33 0 -49 -92 -69 -98 -21 -7 45 6 71 35 71 14 0 35 -7
45 -17z"/>
<path d="M11306 8751 c-10 -15 -34 -133 -45 -216 -23 -171 -42 -582 -51 -1085
-5 -297 -14 -540 -19 -560 -10 -32 0 -307 10 -313 2 -1 82 -1 178 1 l174 3 -7
97 c-4 53 -11 282 -17 507 -5 226 -13 451 -18 500 -5 50 -10 190 -10 311 -1
173 -4 231 -17 265 -8 24 -33 123 -55 219 -40 174 -69 257 -92 272 -16 10 -25
10 -31 -1z m76 -738 c10 -9 18 -24 18 -33 0 -27 -35 -52 -67 -48 -24 3 -28 8
-31 36 -2 19 -1 40 2 48 7 19 55 18 78 -3z m10 -389 c15 -31 2 -55 -35 -68
-34 -13 -57 7 -57 49 0 40 5 45 47 45 26 0 36 -6 45 -26z m-7 -460 c23 -23 15
-56 -17 -74 -21 -11 -32 -12 -45 -4 -19 11 -29 55 -19 80 7 19 61 18 81 -2z"/>
<path d="M12062 8722 c-10 -10 -35 -67 -56 -127 -21 -61 -56 -154 -78 -207
l-39 -97 11 -78 c7 -51 10 -236 8 -528 -4 -662 -3 -1103 4 -1110 3 -3 92 -3
198 1 l193 7 -7 161 c-3 89 -11 271 -16 406 -35 939 -54 1171 -115 1428 -28
116 -37 137 -65 152 -15 8 -24 6 -38 -8z m66 -658 c24 -17 29 -53 10 -72 -7
-7 -27 -12 -45 -12 -27 0 -34 5 -39 26 -8 33 10 74 34 74 9 0 28 -7 40 -16z
m0 -470 c24 -17 29 -53 10 -72 -7 -7 -27 -12 -45 -12 -27 0 -34 5 -39 26 -8
33 10 74 34 74 9 0 28 -7 40 -16z m0 -470 c50 -34 -5 -113 -58 -84 -24 13 -27
62 -4 84 20 20 34 20 62 0z"/>
<path d="M8346 8679 c-29 -62 -63 -189 -101 -373 -14 -72 -30 -137 -34 -145
-5 -9 -2 -95 6 -191 15 -180 13 -349 -7 -790 -6 -118 -11 -324 -13 -458 l-2
-242 133 0 132 0 0 573 c0 418 4 618 15 742 19 225 19 282 -5 428 -10 67 -26
182 -35 254 -19 165 -32 228 -51 244 -11 9 -18 2 -38 -42z m28 -715 c9 -8 16
-22 16 -30 0 -20 -37 -54 -59 -54 -28 0 -54 29 -47 54 3 12 6 27 6 34 0 18 65
15 84 -4z m0 -473 c33 -36 -8 -90 -59 -77 -28 7 -36 27 -28 66 5 26 10 30 38
30 19 0 39 -8 49 -19z m-2 -468 c23 -21 23 -38 -2 -63 -46 -46 -104 -8 -81 53
12 32 53 37 83 10z"/>
<path d="M11701 8693 c-7 -16 -19 -73 -28 -128 -25 -173 -52 -296 -73 -339
-18 -38 -20 -61 -20 -247 0 -112 5 -247 11 -299 5 -52 14 -279 19 -505 5 -225
12 -452 16 -502 l7 -93 97 0 96 0 0 313 c-1 171 1 521 3 777 4 462 3 466 -23
645 -34 230 -60 359 -79 384 -14 21 -14 21 -26 -6z m59 -633 c24 -24 24 -29 4
-58 -21 -30 -71 -30 -85 1 -7 15 -7 31 0 50 13 33 51 37 81 7z m-17 -459 c32
-13 41 -39 22 -67 -24 -38 -95 -28 -95 12 0 26 20 64 34 64 8 0 26 -4 39 -9z
m0 -470 c32 -12 41 -38 23 -66 -19 -29 -50 -36 -76 -18 -18 12 -21 22 -16 46
9 44 26 54 69 38z"/>
<path d="M8708 8654 c-46 -104 -58 -153 -98 -398 -61 -377 -70 -541 -70 -1208
l0 -578 158 0 159 0 6 95 c5 69 2 111 -8 151 -27 105 -48 668 -39 1039 10 413
9 532 -5 670 -18 172 -30 229 -55 260 l-22 28 -26 -59z m42 -688 c18 -23 8
-59 -22 -76 -46 -25 -78 8 -64 66 5 19 13 24 40 24 18 0 39 -7 46 -14z m-2
-468 c28 -28 0 -88 -43 -88 -38 0 -56 39 -39 84 7 19 64 22 82 4z m0 -470 c28
-28 0 -88 -43 -88 -38 0 -56 39 -39 84 7 19 64 22 82 4z"/>
<path d="M10045 7750 c-30 -33 -55 -148 -65 -300 -6 -80 -17 -210 -25 -290 -8
-80 -19 -233 -25 -340 -5 -107 -13 -231 -16 -276 l-6 -80 173 4 c96 2 175 5
176 6 8 6 -24 420 -48 611 -16 132 -34 299 -39 372 -12 177 -28 258 -56 289
-28 29 -45 30 -69 4z"/>
<path d="M5290 7467 c-20 -10 -25 -20 -25 -52 0 -32 5 -42 27 -54 25 -14 29
-14 55 5 39 29 41 66 7 93 -31 25 -31 25 -64 8z"/>
<path d="M14655 7455 c-14 -13 -25 -31 -25 -40 0 -20 44 -65 63 -65 27 0 60
35 60 65 0 30 -33 65 -60 65 -7 0 -25 -11 -38 -25z"/>
<path d="M9292 6799 c-58 -58 -78 -118 -91 -284 -27 -339 -38 -707 -25 -832
l7 -60 101 -32 c55 -17 133 -35 171 -41 39 -5 315 -10 615 -10 l545 0 140 29
c77 15 155 36 174 45 l33 18 -6 106 c-9 135 -60 571 -85 722 -11 63 -22 137
-26 165 -15 109 -66 195 -116 195 -10 0 -33 -13 -50 -28 l-32 -28 -38 -345
c-55 -493 -85 -707 -104 -735 -33 -51 -44 -52 -466 -60 -438 -8 -441 -7 -474
57 -29 55 -59 261 -85 579 -37 453 -44 493 -103 558 -28 30 -38 28 -85 -19z"/>
<path d="M11577 6509 c-7 -4 -129 -9 -272 -13 -143 -4 -280 -10 -305 -14 -53
-9 -51 23 -15 -272 14 -113 31 -258 37 -322 14 -137 -9 -124 183 -107 126 11
478 2 800 -21 72 -5 175 -12 231 -15 l101 -6 70 103 c80 118 158 248 209 350
38 75 39 97 7 166 -18 37 -77 71 -202 116 -72 26 -76 26 -355 27 -154 0 -325
3 -379 7 -54 4 -103 4 -110 1z"/>
<path d="M7607 6376 c-109 -42 -159 -76 -199 -134 l-30 -43 57 -102 c67 -119
147 -244 218 -340 l50 -69 266 7 c245 6 834 -6 1045 -22 l89 -6 -7 129 c-4 71
-2 230 4 352 7 123 10 225 8 227 -2 1 -141 5 -309 8 -169 2 -311 7 -317 11 -5
3 -185 8 -399 11 l-388 5 -88 -34z"/>
<path d="M9728 6377 l-178 -10 0 -29 0 -30 128 9 c70 4 288 8 485 8 l357 -1 0
27 0 26 -142 6 c-181 9 -424 6 -650 -6z"/>
<path d="M5746 6271 c-76 -22 -85 -40 -17 -33 42 4 53 1 73 -19 26 -27 64
-129 56 -150 -3 -8 -99 -45 -217 -84 -231 -75 -228 -75 -268 -16 -38 56 -34
18 13 -123 44 -132 73 -179 59 -97 -5 32 -3 43 13 59 17 17 397 152 428 152
15 0 44 -65 51 -116 7 -50 -12 -88 -53 -106 -28 -13 -34 -44 -6 -33 9 4 41 16
70 27 28 11 52 22 52 26 0 24 -177 532 -185 531 -5 -1 -37 -9 -69 -18z"/>
<path d="M9760 6241 c-194 -10 -201 -12 -193 -54 3 -18 8 -34 10 -36 2 -3 166
4 364 14 206 10 403 15 459 11 l98 -6 7 31 c4 17 4 33 2 36 -9 9 -582 12 -747
4z"/>
<path d="M14306 6083 c-14 -42 -24 -79 -21 -82 3 -2 14 5 25 17 28 30 48 20
151 -74 l86 -79 -41 -7 c-52 -8 -200 -10 -220 -2 -10 4 -16 18 -16 35 0 53
-17 30 -52 -68 -34 -98 -34 -120 2 -88 19 17 186 34 358 35 71 0 73 -1 92 -32
16 -26 19 -43 14 -84 -4 -38 -2 -53 9 -63 40 -32 80 42 57 104 -6 17 -96 113
-206 220 -159 156 -194 195 -194 218 0 49 -18 29 -44 -50z"/>
<path d="M10010 6090 c-168 -10 -333 -19 -367 -19 -61 -1 -63 -2 -63 -27 0
-20 4 -24 19 -19 11 3 216 7 455 8 l436 2 0 27 c0 28 -5 29 -140 42 -19 2
-172 -4 -340 -14z"/>
<path d="M10040 5959 c-63 -4 -191 -7 -284 -8 l-168 -1 6 -31 c3 -17 6 -42 6
-56 l0 -24 93 6 c50 3 171 13 267 21 96 8 250 15 342 17 l168 2 0 33 c0 31 -1
32 -42 33 -24 0 -95 4 -158 7 -63 4 -167 4 -230 1z"/>
<path d="M10210 5803 c-25 -1 -139 -10 -255 -18 -115 -8 -236 -17 -268 -19
-32 -2 -61 -6 -63 -9 -3 -2 1 -17 8 -32 l13 -28 390 7 c214 3 394 11 398 15 5
5 13 28 17 50 l7 41 -101 -2 c-55 -1 -121 -3 -146 -5z"/>
<path d="M11138 5698 l-98 -10 0 -34 c0 -18 -4 -43 -9 -56 -15 -40 -102 -78
-270 -117 l-156 -36 -540 1 c-472 0 -551 2 -625 18 -106 21 -276 79 -312 106
-24 17 -52 22 -195 30 -247 13 -931 22 -1058 13 l-110 -8 150 -151 c374 -375
773 -614 1273 -763 425 -126 939 -146 1397 -55 630 126 1212 469 1642 970 l52
61 -147 7 c-81 3 -205 11 -277 16 -215 15 -613 19 -717 8z"/>
<path d="M6142 5445 c8 -19 8 -28 -2 -40 -21 -25 -397 -235 -421 -235 -12 0
-31 7 -41 17 -10 9 -21 14 -24 10 -5 -5 43 -95 93 -175 17 -27 38 -20 23 8 -5
10 -7 26 -4 34 8 20 168 112 211 121 36 7 87 -14 103 -44 28 -53 1 -89 -120
-161 -91 -54 -113 -59 -141 -34 -41 37 -33 3 19 -88 55 -95 77 -115 66 -58 -7
32 6 43 136 119 79 47 113 96 106 154 -6 54 -48 113 -91 128 -19 7 -35 15 -35
19 0 3 52 33 115 68 l115 63 -48 60 c-49 62 -81 80 -60 34z"/>
<path d="M13997 5310 c-33 -26 -87 -134 -87 -175 0 -50 48 -83 78 -53 18 18
15 46 -8 75 -25 33 -25 54 0 81 25 27 38 27 85 5 l36 -17 -6 -106 c-10 -144 8
-180 87 -180 63 0 114 91 89 161 -15 45 -15 45 28 41 36 -4 41 -1 55 27 18 34
21 81 6 81 -6 0 -13 -7 -16 -15 -10 -25 -41 -17 -148 40 -114 61 -156 68 -199
35z m189 -131 c44 -27 57 -53 49 -95 -10 -58 -67 -67 -95 -14 -14 26 -13 130
1 130 7 0 27 -9 45 -21z"/>
<path d="M13421 4794 c-45 -78 -48 -103 -8 -66 13 12 30 22 39 22 9 0 48 -25
88 -56 l72 -57 -37 -13 c-159 -54 -148 -279 17 -348 115 -49 242 25 255 148 5
44 6 45 28 30 22 -14 24 -13 59 36 35 49 42 87 10 55 -30 -30 -34 -27 -301
187 -95 76 -174 138 -176 138 -2 0 -22 -34 -46 -76z m275 -230 c98 -65 130
-122 104 -185 -14 -34 -37 -49 -75 -49 -55 0 -161 76 -190 135 -47 100 61 166
161 99z"/>
<path d="M6335 4561 c-104 -48 -150 -152 -109 -249 28 -68 110 -132 169 -132
39 0 30 14 -24 37 -91 38 -115 122 -56 198 50 67 54 66 146 -47 l83 -101 33
38 c27 32 33 47 33 85 0 67 -42 129 -111 164 -62 31 -109 33 -164 7z m208 -82
c24 -29 21 -53 -8 -86 l-25 -28 -41 45 c-60 67 -64 78 -37 90 34 14 91 4 111
-21z"/>
<path d="M13025 4051 c-152 -70 -181 -258 -54 -351 83 -60 193 -46 267 34 48
52 66 102 60 167 -13 130 -151 206 -273 150z m89 -65 c42 -25 70 -57 99 -113
45 -87 -10 -166 -98 -142 -72 20 -155 123 -155 193 0 79 74 109 154 62z"/>
<path d="M7430 3901 c0 -5 7 -14 15 -21 30 -25 14 -61 -105 -240 -125 -186
-144 -205 -188 -181 -12 6 -23 7 -26 2 -7 -11 222 -163 234 -156 6 4 -3 18
-20 32 -42 35 -39 64 21 155 57 86 59 87 118 27 32 -32 39 -65 21 -99 -6 -12
-7 -21 0 -25 9 -6 135 173 127 181 -2 3 -21 -5 -41 -16 -39 -24 -72 -19 -128
18 l-27 18 59 89 c33 50 65 92 70 93 16 6 136 -76 155 -105 16 -23 17 -70 4
-108 -2 -5 0 -12 6 -14 9 -4 75 94 75 111 0 7 -354 248 -365 248 -3 0 -5 -4
-5 -9z"/>
<path d="M12237 3695 c-131 -78 -240 -145 -243 -148 -8 -7 67 -138 76 -132 5
3 1 23 -7 45 -22 56 -6 90 65 135 31 19 62 35 69 35 11 0 221 -341 236 -383 8
-22 -8 -54 -37 -78 -12 -10 -18 -21 -14 -24 10 -10 258 136 258 152 0 8 -9 8
-34 1 -65 -20 -73 -13 -194 187 -62 102 -112 191 -112 197 0 26 96 78 145 78
27 0 44 -8 67 -31 48 -47 50 -20 4 47 l-41 62 -238 -143z"/>
<path d="M8015 3340 c-3 -5 4 -14 15 -20 28 -15 25 -36 -20 -149 -46 -113 -49
-154 -17 -202 39 -59 133 -88 189 -58 26 14 29 9 19 -28 -9 -30 -9 -30 56 -53
66 -23 93 -21 55 6 -12 8 -22 26 -22 39 0 13 27 88 60 166 33 78 59 143 58
144 -2 1 -33 14 -71 30 -67 28 -103 27 -59 -2 31 -21 28 -40 -21 -146 -58
-124 -97 -155 -162 -125 -51 23 -47 78 19 233 25 59 46 109 46 111 0 4 -62 33
-117 55 -13 5 -25 4 -28 -1z"/>
<path d="M8917 3085 c-15 -14 -40 -28 -55 -31 -45 -10 -52 -13 -52 -25 0 -6 9
-13 20 -16 26 -7 26 -12 -10 -153 -16 -65 -30 -131 -30 -145 0 -54 87 -100
148 -79 37 13 41 35 5 28 -21 -4 -33 0 -47 15 -19 20 -18 24 14 161 19 77 38
140 44 140 6 0 26 -4 44 -9 28 -8 32 -7 32 9 0 12 -10 20 -35 24 -35 7 -36 8
-33 53 2 25 -1 47 -7 49 -5 2 -23 -8 -38 -21z"/>
<path d="M11125 3041 c-139 -35 -201 -166 -140 -294 28 -59 76 -90 146 -95 75
-6 137 17 179 64 49 57 39 73 -16 25 -37 -33 -92 -52 -126 -44 -13 3 -35 17
-50 31 -32 29 -66 109 -52 121 5 5 62 21 127 36 129 30 133 34 97 92 -34 56
-98 81 -165 64z m61 -56 c45 -45 20 -70 -90 -90 -35 -7 -36 -7 -36 25 0 37 47
90 80 90 11 0 32 -11 46 -25z"/>
<path d="M9390 2923 c0 -5 11 -15 25 -21 l26 -12 -3 -132 c-3 -147 6 -178 62
-212 44 -25 129 -21 174 9 l36 24 0 -34 0 -35 70 0 c69 0 93 12 46 24 -14 3
-28 15 -31 26 -4 11 -1 90 6 175 6 86 10 157 8 159 -2 2 -37 6 -76 9 -57 5
-73 3 -73 -7 0 -8 12 -17 26 -20 l27 -7 -6 -98 c-8 -155 -50 -223 -123 -205
-54 14 -64 75 -46 277 l8 77 -26 0 c-14 0 -49 3 -77 6 -32 4 -53 3 -53 -3z"/>
<path d="M10493 2922 c-26 -8 -62 -39 -85 -72 l-16 -25 -7 43 c-4 23 -12 42
-16 42 -21 0 -129 -34 -129 -41 0 -4 11 -10 25 -13 35 -9 43 -30 55 -154 13
-126 9 -149 -26 -158 -13 -3 -24 -11 -24 -16 0 -10 215 -2 233 9 18 11 4 23
-28 23 -29 0 -37 5 -45 26 -15 39 -12 189 4 229 16 38 24 41 72 23 41 -15 64
1 64 43 0 22 -6 32 -26 39 -14 6 -26 10 -27 9 -1 -1 -12 -4 -24 -7z"/>
</g>
</svg>
