<?xml version="1.0" standalone="no"?>
<!DOCTYPE svg PUBLIC "-//W3C//DTD SVG 20010904//EN"
 "http://www.w3.org/TR/2001/REC-SVG-20010904/DTD/svg10.dtd">
<svg version="1.0" xmlns="http://www.w3.org/2000/svg"
 width="2000.000000pt" height="1500.000000pt" viewBox="0 0 2000.000000 1500.000000"
 preserveAspectRatio="xMidYMid meet">

<g transform="translate(0.000000,1500.000000) scale(0.100000,-0.100000)"
fill="#000000" stroke="none">
<path d="M0 7500 l0 -7500 10000 0 10000 0 0 7500 0 7500 -10000 0 -10000 0 0
-7500z m9802 4979 c-30 -9 -32 -12 -27 -42 4 -26 45 -462 45 -482 0 -3 14 -5
32 -5 66 0 11 -18 -72 -24 -71 -4 -80 -3 -57 7 24 10 28 16 23 42 -3 16 -8 72
-12 124 l-7 93 -46 -6 c-25 -3 -84 -9 -130 -12 l-83 -7 6 -91 c11 -143 14
-156 42 -156 13 0 24 -4 24 -9 0 -8 -99 -22 -154 -20 l-31 1 28 10 c34 12 34
13 7 288 -11 113 -20 213 -20 223 0 12 -8 17 -30 17 -16 0 -30 5 -30 10 0 6
13 10 29 10 15 0 57 2 92 5 56 4 61 3 36 -7 -26 -11 -28 -16 -23 -53 3 -22 8
-78 12 -123 l7 -84 41 6 c22 3 81 9 130 12 l88 7 -6 81 c-13 154 -16 166 -42
166 -13 0 -24 4 -24 9 0 10 50 17 135 18 47 1 48 1 17 -8z m398 -204 l135
-215 8 173 c9 220 9 229 -23 238 -16 5 -1 7 43 8 38 1 67 -3 67 -9 0 -5 -11
-10 -25 -10 -24 0 -25 -3 -26 -67 -7 -352 -14 -468 -29 -471 -10 -1 -67 80
-170 244 -85 135 -158 248 -162 251 -7 4 -11 -148 -13 -404 0 -67 0 -68 30
-74 20 -4 6 -7 -42 -8 -43 -1 -73 3 -73 9 0 6 11 10 24 10 23 0 23 2 30 133 3
72 7 191 8 262 l1 130 -29 6 c-19 4 -5 7 41 8 l70 0 135 -214z m443 179 c31
-3 57 -10 57 -15 0 -5 -11 -7 -24 -3 -22 5 -25 2 -30 -28 -6 -36 -56 -472 -56
-488 0 -6 11 -10 25 -10 14 0 25 -5 25 -11 0 -7 -17 -9 -52 -5 -102 13 -128
18 -128 25 0 5 11 6 25 3 15 -2 27 1 29 9 7 19 56 452 56 489 0 25 -4 30 -25
30 -14 0 -25 5 -25 11 0 7 12 9 33 6 17 -3 58 -9 90 -13z m-1420 -164 c-3 -3
-10 4 -17 14 -36 63 -101 92 -170 76 -49 -11 -85 -37 -111 -81 -30 -50 -27
-202 4 -282 54 -137 156 -191 261 -137 48 25 70 56 77 110 7 51 17 41 32 -28
16 -76 15 -85 -7 -71 -14 9 -28 5 -69 -21 -42 -26 -66 -34 -120 -37 -61 -4
-74 -2 -123 24 -95 50 -150 158 -150 298 0 165 109 264 276 251 68 -5 72 -4
79 17 5 17 11 5 25 -53 10 -41 16 -77 13 -80z m1904 70 c51 -29 58 -31 68 -16
17 23 26 20 21 -6 -3 -13 -10 -49 -16 -81 -12 -61 -30 -68 -30 -12 0 64 -76
125 -156 125 -84 0 -148 -62 -184 -178 -22 -71 -27 -193 -9 -239 48 -128 240
-150 289 -33 7 16 16 28 20 25 7 -4 3 -36 -16 -122 -5 -26 -24 -31 -24 -8 0
13 -11 14 -70 9 -98 -9 -153 8 -212 67 -80 80 -98 200 -48 331 62 164 217 222
367 138z m-2451 -101 c7 -30 14 -60 14 -66 0 -26 -17 -12 -35 27 -10 23 -23
44 -28 47 -10 6 -197 -48 -197 -57 0 -3 17 -56 38 -117 l37 -111 85 27 85 27
-2 37 c-1 20 1 37 6 37 10 0 56 -148 48 -157 -4 -3 -12 8 -18 25 -6 18 -15 32
-21 32 -6 0 -48 -12 -93 -26 l-83 -26 12 -41 c40 -131 61 -187 70 -187 6 0 53
14 105 31 l93 31 -7 64 c-4 35 -3 64 2 64 6 0 42 -86 56 -133 1 -5 -20 -15
-48 -23 -27 -7 -112 -33 -187 -57 -76 -25 -138 -41 -138 -37 0 4 11 12 24 18
l24 11 -77 239 c-43 131 -81 244 -84 249 -4 6 -19 9 -34 7 -17 -3 -22 -1 -13
3 20 10 344 118 348 117 2 -1 10 -26 18 -55z m2878 -66 c3 -32 8 -139 11 -238
3 -99 8 -205 11 -235 5 -54 7 -57 45 -73 21 -9 43 -17 48 -17 12 0 215 484
205 487 -19 7 -38 22 -34 27 6 5 141 -51 154 -64 6 -6 -2 -8 -19 -7 -28 2 -30
-2 -127 -228 -54 -126 -98 -233 -98 -236 0 -4 56 -29 172 -77 4 -2 21 19 39
47 17 28 35 51 40 51 12 0 13 6 -19 -77 -26 -67 -30 -72 -48 -59 -31 21 -322
142 -411 171 -83 27 -110 43 -53 32 l30 -6 0 83 c0 55 -4 87 -12 93 -23 18
-180 65 -187 57 -26 -30 -101 -131 -101 -136 0 -3 12 -9 26 -12 15 -4 24 -10
20 -13 -8 -8 -126 28 -126 39 0 5 11 6 23 2 21 -5 38 13 147 153 212 271 230
293 244 293 10 0 16 -18 20 -57z m-3296 -89 c25 -68 26 -74 14 -74 -5 0 -21
23 -36 50 -15 28 -31 50 -36 50 -12 0 -120 -48 -120 -53 0 -10 192 -453 200
-461 4 -4 24 -3 45 4 20 7 38 10 41 7 7 -7 -214 -99 -227 -95 -7 2 6 12 29 21
23 9 42 19 42 22 0 9 -192 460 -199 468 -10 10 -121 -39 -121 -53 0 -6 5 -31
11 -55 19 -74 4 -74 -33 1 l-34 71 126 52 c69 28 157 66 196 85 38 18 72 31
75 27 3 -3 15 -33 27 -67z m-705 -262 l-22 -17 109 -175 c113 -180 127 -214
116 -275 -17 -91 -160 -181 -255 -160 -53 11 -86 50 -196 225 -59 94 -112 170
-119 170 -7 0 -17 -5 -24 -12 -6 -6 -15 -9 -19 -5 -8 8 -14 4 77 60 41 25 77
44 80 41 2 -3 -6 -13 -18 -23 l-23 -17 106 -172 c126 -203 149 -226 217 -220
55 6 109 42 134 90 28 54 14 96 -92 266 -116 187 -122 196 -140 181 -7 -6 -18
-9 -25 -7 -6 2 15 20 47 40 58 36 90 43 47 10z m5028 -55 c20 -15 20 -17 4
-12 -11 4 -24 7 -30 8 -5 1 -67 -99 -138 -223 l-129 -225 23 -18 c12 -9 20
-20 17 -22 -7 -7 -158 78 -158 89 0 4 6 6 13 3 6 -3 19 -8 27 -11 11 -4 47 51
143 221 126 222 128 228 108 242 -12 7 -21 17 -21 22 0 9 99 -43 141 -74z
m159 -99 l50 -33 0 -254 0 -255 106 155 c59 85 109 160 112 168 3 7 -2 18 -11
23 -10 5 -17 13 -17 19 0 5 25 -7 55 -27 30 -20 55 -41 55 -47 0 -5 -11 -2
-24 6 l-24 16 -154 -224 c-84 -123 -157 -223 -163 -221 -6 2 -12 115 -15 300
l-5 298 -127 -185 c-71 -102 -128 -190 -128 -196 0 -5 8 -14 17 -20 10 -5 15
-13 11 -16 -4 -4 -27 7 -52 24 -47 33 -64 51 -47 51 5 0 13 -4 16 -10 3 -5 10
-10 15 -10 7 0 211 289 285 404 19 28 19 29 -4 47 -38 31 -5 22 49 -13z
m-5650 -126 c0 -5 18 -32 40 -62 50 -67 41 -85 -15 -30 -49 48 -59 47 -118 -3
l-38 -32 151 -195 c83 -107 155 -199 160 -204 5 -5 23 2 43 17 19 14 37 23 40
20 9 -8 -174 -152 -193 -152 -9 -1 -1 10 18 25 17 14 32 30 32 36 0 9 -105
148 -258 341 l-53 67 -49 -37 c-27 -21 -49 -44 -50 -51 0 -7 11 -30 25 -52 25
-40 32 -64 16 -58 -5 2 -30 29 -55 60 -46 57 -46 57 -24 69 31 17 268 202 292
228 20 22 36 27 36 13z m6177 -263 c41 -15 83 -58 104 -108 16 -37 22 -41 34
-31 24 20 30 3 9 -22 -40 -49 -78 -88 -85 -88 -5 0 1 20 11 43 39 88 -19 177
-115 177 -45 0 -81 -34 -90 -84 -6 -30 0 -51 35 -124 50 -104 59 -162 33 -212
-66 -127 -242 -98 -319 53 -20 39 -29 47 -44 42 -11 -4 -20 -3 -20 2 1 12 89
108 94 102 3 -3 -1 -23 -9 -46 -18 -52 -6 -101 37 -143 60 -60 126 -63 172 -9
36 42 33 79 -14 179 -28 60 -40 98 -40 131 0 105 106 176 207 138z m-6577 -64
c-10 -11 -10 -47 0 -172 6 -87 13 -159 15 -161 1 -2 19 7 39 18 49 29 94 21
188 -36 40 -24 83 -44 94 -44 32 0 38 29 14 55 -13 14 -17 25 -12 29 18 11 54
-45 47 -74 -17 -71 -90 -79 -185 -20 -93 57 -121 65 -164 45 -19 -9 -39 -14
-44 -11 -5 3 -12 61 -16 128 -9 160 -16 202 -29 189 -6 -6 -16 -11 -21 -11 -6
0 10 20 34 45 24 24 46 43 48 40 3 -2 -1 -11 -8 -20z m-185 -175 c-20 -23 -38
-1 228 -279 115 -119 119 -123 138 -105 10 9 22 14 25 11 4 -3 -22 -32 -56
-64 -62 -57 -101 -85 -67 -46 9 11 17 24 17 29 0 10 -338 367 -352 373 -5 1
-18 -5 -29 -15 -10 -9 -19 -13 -19 -8 0 12 123 135 129 129 2 -3 -4 -14 -14
-25z m7175 -152 l133 -137 -53 -48 c-29 -26 -57 -49 -61 -51 -18 -7 -8 16 28
62 l37 47 -46 46 c-57 57 -36 68 -258 -146 l-164 -159 27 -36 c52 -67 10 -36
-72 54 -46 50 -79 90 -74 90 5 0 20 -11 33 -25 13 -14 27 -25 32 -25 5 0 92
80 194 177 l185 177 -43 43 c-23 24 -49 43 -58 43 -8 0 -33 -14 -54 -30 -61
-46 -64 -23 -5 36 50 51 54 53 69 37 9 -10 76 -80 150 -155z m-7358 -30 c-7
-7 -12 -17 -12 -24 0 -6 65 -66 145 -133 175 -147 199 -176 199 -239 -1 -104
-110 -222 -205 -222 -50 0 -85 22 -243 155 -82 69 -154 125 -159 125 -5 0 -16
-8 -23 -17 -7 -10 -16 -15 -20 -11 -8 9 103 138 118 138 6 0 4 -8 -5 -18 -10
-10 -17 -21 -17 -25 0 -7 221 -195 293 -250 35 -27 59 -37 84 -37 95 0 175
118 139 204 -9 21 -67 78 -169 164 -86 73 -159 132 -163 132 -4 0 -16 -7 -26
-17 -33 -30 -19 1 23 50 23 26 44 45 47 42 3 -3 0 -11 -6 -17z m7588 -229 c49
-59 68 -99 32 -66 -10 10 -22 17 -25 17 -7 0 -337 -270 -381 -311 -16 -15 -17
-21 -7 -33 7 -8 11 -20 9 -26 -2 -6 -29 20 -60 58 -32 38 -55 72 -51 75 3 4
13 -3 22 -15 17 -21 20 -19 219 147 111 92 202 170 202 173 0 3 -7 14 -17 24
-9 10 -11 18 -5 18 6 0 34 -27 62 -61z m296 -401 c24 -32 45 -62 47 -67 3 -13
-121 -92 -127 -82 -3 5 15 27 40 50 45 41 45 41 29 68 -9 16 -27 41 -40 57
l-23 28 -203 -143 c-111 -79 -207 -147 -212 -150 -5 -4 2 -22 17 -41 14 -19
23 -38 20 -41 -4 -4 -40 40 -80 96 -40 56 -70 104 -67 107 2 3 17 -10 32 -29
20 -24 32 -32 42 -26 8 5 103 71 212 148 l197 139 -16 26 c-8 15 -27 41 -40
57 l-24 30 -51 -28 c-74 -41 -79 -22 -8 32 l62 47 74 -110 c41 -60 94 -136
119 -168z m-3841 157 c698 -91 1325 -416 1793 -928 744 -814 967 -1958 586
-2999 -20 -54 -40 -98 -45 -98 -5 0 -9 4 -9 9 0 5 -12 24 -27 42 -29 34 -123
82 -234 118 -46 15 -68 28 -72 41 -3 10 -2 122 1 249 6 258 -1 241 85 241 21
0 47 5 58 10 21 12 26 45 7 56 -12 8 -102 7 -129 -1 -13 -4 -17 17 -27 147 -7
84 -12 179 -12 211 l0 57 75 0 c58 0 77 3 81 15 12 32 -15 45 -92 45 l-74 0 0
68 c0 38 -3 130 -7 205 l-6 136 74 3 c69 3 74 4 77 27 5 33 -12 41 -89 41
l-66 0 -7 73 c-20 204 -78 503 -111 568 -32 61 -114 87 -165 52 -39 -27 -46
-40 -101 -193 -28 -80 -55 -148 -59 -153 -3 -4 -14 38 -24 94 -23 132 -40 180
-76 214 -37 36 -68 39 -98 11 -41 -36 -52 -72 -83 -259 -17 -100 -34 -185 -38
-190 -4 -4 -22 59 -40 140 -62 277 -94 349 -166 373 -40 13 -84 -4 -103 -42
-57 -114 -90 -490 -100 -1150 -4 -240 -10 -439 -13 -442 -9 -9 -66 308 -104
569 -18 132 -43 299 -54 370 -11 72 -29 204 -41 295 -28 232 -50 361 -66 391
-17 34 -67 55 -102 43 -42 -14 -75 -95 -108 -262 -6 -28 -41 -65 -57 -59 -21
7 -37 119 -40 294 -4 186 -12 216 -61 229 -49 12 -70 0 -118 -66 -76 -104 -70
-100 -148 -100 l-70 0 0 60 0 60 69 0 c76 0 105 16 81 45 -9 11 -33 15 -86 15
-40 0 -75 3 -77 8 -3 4 -8 42 -12 85 l-7 77 59 0 c69 0 86 9 81 41 -3 22 -8
24 -77 29 l-73 5 -25 85 c-29 103 -48 132 -96 144 -70 18 -105 -19 -137 -144
l-16 -65 -69 -3 c-74 -3 -95 -13 -95 -43 0 -24 37 -39 97 -39 l45 0 -7 -57
c-11 -88 -8 -86 -86 -78 -79 8 -109 1 -109 -25 0 -28 31 -40 104 -40 75 0 72
8 53 -110 -12 -75 -12 -75 -48 -84 -29 -7 -45 -5 -75 10 -39 19 -46 33 -59
108 -14 84 -102 124 -160 74 -32 -29 -47 -84 -81 -303 -14 -93 -30 -174 -34
-178 -8 -9 -12 3 -30 113 -19 106 -45 140 -109 140 -34 0 -66 -26 -81 -64 -16
-43 -49 -406 -55 -606 -7 -252 -29 -506 -60 -696 -14 -83 -25 -184 -25 -225 0
-62 -34 -372 -44 -404 -3 -11 -10 96 -28 468 -9 198 -9 315 2 577 13 332 11
427 -16 644 -16 127 -34 181 -79 234 -23 28 -33 33 -64 30 -27 -2 -40 -11 -58
-36 -38 -57 -85 -191 -105 -302 -36 -195 -30 -205 -69 116 -18 157 -58 234
-119 234 -65 0 -109 -77 -165 -287 -20 -75 -34 -116 -35 -98 -19 410 -21 426
-74 460 -86 56 -226 -41 -266 -185 -14 -48 -38 -237 -58 -460 l-17 -185 -79 0
c-65 0 -80 -3 -90 -18 -18 -30 17 -47 97 -47 l70 0 -6 -47 c-4 -27 -12 -130
-18 -230 l-12 -183 -72 0 c-52 0 -76 -4 -85 -15 -24 -29 5 -45 83 -45 l70 0
-6 -82 c-4 -46 -12 -139 -18 -209 l-12 -125 -65 8 c-72 8 -95 -1 -90 -36 3
-23 32 -33 93 -35 22 -1 45 -5 51 -9 8 -6 5 -327 -5 -479 -1 -12 -79 -53 -102
-53 -33 0 -140 -64 -182 -109 l-47 -50 -16 30 c-8 17 -35 81 -58 142 -183 478
-238 1013 -156 1517 218 1331 1309 2337 2657 2450 145 12 450 4 598 -15z
m-4309 -69 c22 -22 35 -47 40 -73 l6 -40 48 20 c60 25 104 18 155 -26 32 -28
38 -40 42 -84 3 -29 3 -63 -1 -76 -6 -27 -137 -231 -155 -241 -14 -9 -14 0 1
24 7 10 10 21 8 23 -3 2 -101 68 -219 147 l-214 143 -18 -24 c-10 -13 -19 -18
-19 -11 0 7 26 52 59 100 84 125 117 151 190 152 36 0 49 -6 77 -34z m8282
-301 c23 -41 42 -77 42 -80 0 -14 -19 -3 -25 15 -3 11 -10 20 -14 20 -10 0
-305 -164 -352 -196 -64 -44 -76 -108 -34 -181 32 -54 92 -87 138 -78 30 7
326 165 372 199 16 12 18 17 8 27 -15 15 -17 29 -5 29 4 0 22 -27 40 -60 34
-60 35 -78 3 -39 -17 21 -17 21 -196 -79 -99 -55 -196 -104 -216 -107 -69 -13
-143 34 -184 116 -47 92 -42 159 18 216 17 17 106 73 197 124 91 50 167 94
169 96 2 1 -1 14 -7 28 -24 53 5 21 46 -50z m-8670 -35 c-3 -30 0 -32 225
-148 l228 -117 19 25 c11 14 20 21 20 16 0 -16 -74 -156 -83 -156 -4 0 -3 9 3
19 5 11 10 22 10 25 0 3 -91 51 -202 107 -112 56 -196 93 -187 83 9 -11 85
-95 168 -188 83 -93 151 -173 151 -178 0 -19 -38 -19 -260 2 -127 12 -233 20
-235 18 -2 -2 83 -47 190 -101 184 -92 195 -96 205 -77 6 11 15 20 20 20 6 0
-3 -27 -20 -60 -17 -33 -35 -60 -40 -60 -6 0 -5 10 2 25 6 14 9 27 7 29 -3 3
-421 215 -460 234 -3 1 -11 -10 -19 -25 -7 -16 -15 -23 -17 -16 -2 6 7 34 22
62 19 38 31 51 47 51 12 0 118 -9 236 -21 118 -11 218 -19 223 -17 5 2 -64 83
-152 182 l-162 178 29 59 c15 32 29 59 31 59 2 0 2 -14 1 -30z m8951 -505 c26
-66 64 -154 83 -196 l35 -75 -56 -21 c-31 -11 -64 -23 -73 -28 -31 -13 -20 15
13 33 74 41 74 41 46 107 -15 34 -31 59 -38 57 -7 -2 -113 -46 -236 -99 -144
-62 -223 -100 -223 -110 0 -8 5 -23 11 -34 6 -11 8 -25 6 -32 -3 -7 -12 4 -20
23 -64 147 -85 200 -78 200 4 0 15 -16 24 -35 9 -19 21 -35 27 -35 9 0 460
188 468 195 3 2 -45 116 -52 123 -2 2 -29 -4 -61 -13 -48 -14 -79 -15 -64 -1
11 10 125 65 132 63 4 -1 29 -56 56 -122z m-4620 -23 c22 -41 52 -186 71 -344
24 -196 24 -224 7 -231 -8 -3 -64 -8 -126 -12 l-113 -8 7 54 c21 171 79 466
104 532 12 31 36 35 50 9z m-4652 -111 l-6 -28 237 -92 c130 -50 242 -91 249
-91 6 0 15 9 18 21 4 11 9 18 12 15 8 -7 -46 -154 -59 -162 -6 -4 -8 4 -4 22
l7 29 -240 94 c-132 51 -244 90 -250 86 -6 -3 -11 -13 -11 -21 0 -8 -5 -14
-11 -14 -6 0 -8 7 -5 18 30 79 60 152 64 152 2 0 2 -13 -1 -29z m-15 -227 c74
-24 78 -45 7 -32 -28 5 -57 7 -64 4 -14 -5 -52 -112 -44 -121 10 -9 482 -154
490 -150 4 3 10 19 14 35 6 28 25 52 25 32 0 -23 -73 -236 -77 -224 -3 7 0 27
6 44 6 17 10 33 8 34 -4 4 -480 154 -489 154 -8 0 -38 -94 -38 -117 0 -7 23
-24 50 -38 28 -14 50 -30 50 -36 0 -7 -7 -8 -17 -4 -10 3 -43 13 -74 22 l-55
15 47 147 c27 80 55 172 64 204 10 35 21 57 28 54 7 -2 38 -13 69 -23z m9483
-151 c31 -93 59 -173 61 -178 2 -6 -21 -16 -52 -24 -31 -7 -63 -15 -70 -18 -8
-3 -14 0 -14 6 0 6 20 21 45 33 25 12 45 29 45 37 0 27 -54 181 -63 181 -11 0
-208 -60 -219 -66 -3 -2 7 -44 23 -93 l30 -90 37 6 c20 3 34 3 31 -1 -12 -13
-149 -55 -149 -45 0 5 11 14 25 19 14 5 25 15 25 22 0 21 -51 168 -58 168 -12
0 -213 -67 -219 -73 -3 -4 10 -50 28 -104 37 -107 32 -103 117 -90 61 10 51
-10 -18 -35 -30 -11 -61 -20 -68 -21 -9 -1 -22 27 -37 78 -13 44 -40 126 -59
182 -19 57 -31 105 -26 108 5 3 12 -6 16 -20 3 -14 9 -25 13 -25 4 0 118 36
254 80 l246 80 -9 25 c-5 14 -6 25 -1 25 5 0 35 -75 66 -167z m-5305 22 c7 -9
17 -39 21 -67 11 -69 31 -96 95 -125 41 -19 65 -24 92 -19 57 9 270 25 444 32
178 8 203 16 237 81 27 51 68 100 76 91 4 -4 9 -83 11 -175 4 -177 19 -284 48
-328 24 -36 62 -49 99 -34 38 16 85 81 92 128 9 53 33 155 45 186 26 68 49
-23 91 -355 11 -91 31 -239 45 -330 14 -91 38 -257 54 -370 16 -113 56 -347
89 -520 50 -264 60 -340 66 -472 l7 -157 -24 -5 c-12 -3 -55 -7 -94 -10 l-70
-6 -17 91 c-19 111 -59 195 -106 227 -46 30 -116 30 -162 -1 -59 -39 -75 -84
-94 -257 -10 -85 -19 -157 -21 -159 -1 -2 -47 0 -102 4 l-99 7 -11 216 c-7
120 -23 303 -37 407 -14 105 -30 255 -35 335 -13 179 -36 307 -61 349 -24 39
-75 71 -114 71 -106 0 -157 -128 -175 -434 -5 -95 -14 -203 -19 -241 -6 -39
-17 -200 -26 -360 -8 -159 -18 -304 -20 -321 -5 -30 -7 -31 -73 -38 -115 -10
-222 -8 -222 7 0 6 -6 68 -14 137 -21 182 -66 284 -142 316 -29 12 -39 12 -74
-2 -52 -21 -124 -101 -148 -167 -11 -29 -23 -79 -26 -112 -4 -33 -9 -84 -12
-112 l-5 -53 -90 0 -89 0 0 109 c0 90 3 116 19 143 22 38 71 398 71 523 0 42
11 140 24 218 31 177 53 439 66 757 8 222 32 498 46 543 3 9 12 17 19 17 15 0
30 -46 40 -125 10 -76 23 -109 54 -139 28 -27 30 -27 59 -12 42 22 57 63 82
226 22 152 46 276 56 291 8 13 20 11 34 -6z m-1429 -207 c7 -14 16 -102 20
-218 5 -107 18 -313 29 -458 23 -308 25 -527 6 -927 -7 -159 -14 -382 -15
-495 -2 -112 -5 -208 -7 -212 -5 -8 -361 -5 -368 3 -7 9 15 573 29 734 8 94
19 242 25 330 30 457 80 988 101 1083 15 69 34 106 73 146 44 43 88 49 107 14z
m3290 -94 c11 -24 40 -130 64 -234 24 -104 51 -206 60 -227 14 -32 15 -64 10
-193 -3 -85 -1 -209 4 -275 6 -66 15 -298 21 -515 6 -217 14 -458 19 -535 4
-77 8 -141 7 -141 -1 -1 -83 -4 -182 -8 l-181 -7 -7 138 c-5 85 -3 163 3 204
6 37 15 316 21 620 9 520 27 889 51 1039 10 66 37 179 46 192 10 17 46 -16 64
-58z m755 10 c38 -56 94 -362 114 -614 13 -161 39 -715 50 -1065 4 -137 11
-282 15 -322 4 -39 5 -87 1 -105 l-6 -33 -197 -3 -198 -2 -5 102 c-6 131 -6
170 3 848 7 457 6 585 -5 672 -12 93 -12 111 1 135 8 15 45 111 82 212 38 101
74 188 81 192 24 16 47 9 64 -17z m-3719 -34 c8 -25 20 -103 29 -175 8 -71 26
-202 40 -290 l25 -159 -17 -186 c-15 -155 -17 -281 -15 -786 2 -342 -1 -604
-6 -607 -5 -3 -69 -3 -142 0 l-132 6 6 314 c3 172 10 391 15 486 13 229 12
574 -1 722 -12 133 -16 106 70 460 61 256 98 318 128 215z m373 -27 c5 -12 17
-78 27 -145 15 -102 17 -172 13 -413 -9 -646 3 -1181 31 -1326 6 -30 13 -112
16 -182 l5 -128 -163 7 c-90 4 -165 7 -166 8 -1 1 -2 271 -4 601 -2 676 5 800
67 1185 39 240 51 292 96 392 l32 70 18 -24 c10 -12 23 -33 28 -45z m2968 10
c17 -56 59 -317 78 -477 15 -124 15 -205 8 -661 -5 -286 -8 -619 -6 -739 l3
-219 -53 6 c-29 4 -74 7 -99 7 -45 0 -47 1 -52 33 -3 17 -11 214 -16 437 -6
223 -16 482 -23 575 -7 94 -12 259 -11 368 2 176 4 203 22 240 20 42 49 184
72 347 19 140 50 173 77 83z m-1630 -916 c26 -28 47 -131 57 -287 3 -58 19
-212 36 -344 27 -217 49 -491 49 -606 l0 -45 -178 -2 -177 -2 7 107 c4 59 12
199 18 312 6 113 15 236 21 275 5 38 14 146 19 241 10 173 34 304 65 351 20
30 55 30 83 0z m-4760 -283 c48 -33 17 -114 -44 -114 -23 0 -64 42 -64 65 0
23 41 65 64 65 12 0 32 -7 44 -16z m9382 -4 c11 -11 20 -31 20 -45 0 -14 -9
-34 -20 -45 -11 -11 -31 -20 -45 -20 -14 0 -34 9 -45 20 -11 11 -20 31 -20 45
0 14 9 34 20 45 11 11 31 20 45 20 14 0 34 -9 45 -20z m-5343 -659 c37 -54 51
-122 68 -321 59 -681 75 -781 133 -834 30 -26 95 -29 492 -18 377 9 396 13
418 69 15 35 50 303 97 728 40 354 46 377 101 391 57 14 100 -22 124 -106 18
-62 68 -398 94 -635 43 -382 47 -421 41 -437 -10 -25 -68 -46 -202 -72 -170
-33 -389 -39 -928 -28 -385 9 -427 11 -500 31 -44 13 -99 31 -122 41 l-43 19
0 229 c0 228 11 483 30 701 12 134 35 195 92 247 48 43 74 42 105 -5z m2649
-297 c283 -1 305 -3 370 -24 86 -28 174 -72 195 -96 20 -23 39 -78 39 -113 0
-52 -263 -494 -312 -525 -12 -7 -74 -6 -210 2 -433 28 -605 34 -845 29 l-251
-6 -6 22 c-3 12 -6 40 -6 62 0 22 -16 166 -35 320 -19 153 -35 285 -35 291 0
7 19 16 43 19 84 13 594 33 672 27 44 -3 215 -7 381 -8z m-3636 -104 c47 -5
226 -9 398 -10 l314 -1 -6 -22 c-4 -12 -9 -175 -13 -361 l-6 -339 -151 7
c-474 20 -819 26 -1009 16 -110 -5 -207 -10 -217 -10 -37 0 -340 467 -340 525
0 9 26 43 58 74 42 43 73 63 117 79 33 12 74 29 90 36 24 12 94 15 355 15 179
-1 363 -4 410 -9z m2028 -17 l94 -6 -6 -30 c-3 -17 -7 -32 -9 -33 -1 -1 -83 2
-182 7 -125 7 -260 6 -440 -2 -376 -18 -339 -20 -343 21 l-3 35 118 4 c65 2
170 7 233 11 115 8 362 5 538 -7z m-4518 -360 l87 -268 -50 -23 c-28 -13 -63
-26 -79 -29 -40 -8 -37 18 6 41 52 28 63 65 41 134 -9 32 -21 62 -27 69 -6 8
-64 -7 -214 -57 -113 -38 -213 -75 -221 -82 -10 -8 -14 -26 -11 -55 2 -27 -1
-44 -9 -47 -7 -3 -28 44 -57 132 -25 75 -46 143 -46 150 0 23 18 12 39 -23 15
-26 27 -35 47 -35 33 0 405 118 421 134 8 8 7 26 -8 72 -25 80 -47 99 -110 97
-73 -2 -61 19 24 43 39 11 74 19 76 18 2 -2 43 -124 91 -271z m4548 220 c40
-5 42 -7 42 -39 0 -18 -3 -35 -7 -37 -5 -3 -39 0 -78 5 -50 7 -164 5 -395 -6
-179 -9 -356 -18 -395 -19 l-70 -2 -3 42 -3 41 73 7 c258 22 700 27 836 8z
m3890 -109 c0 -21 41 -68 197 -224 191 -191 197 -199 202 -244 6 -51 -14 -86
-48 -86 -27 0 -34 19 -31 85 3 53 0 63 -21 83 l-24 23 -194 -11 c-185 -11
-229 -19 -229 -40 0 -6 -7 -10 -15 -10 -8 0 -15 4 -15 8 0 8 50 159 65 194 10
25 33 11 27 -17 -3 -16 1 -27 10 -30 8 -3 70 -4 137 -3 l123 3 -92 83 c-51 45
-101 82 -110 82 -10 0 -24 -10 -33 -22 -36 -55 -29 17 14 130 12 31 37 28 37
-4z m-3876 -39 c9 -4 13 -17 10 -41 l-4 -35 -52 5 c-132 14 -264 16 -546 7
-168 -5 -306 -8 -306 -7 -1 0 -4 11 -8 23 -6 20 -3 21 76 27 429 31 781 39
830 21z m-138 -135 c71 -5 130 -11 132 -13 2 -2 1 -17 -2 -34 l-6 -30 -206 -6
c-114 -4 -279 -13 -367 -21 -88 -9 -190 -16 -226 -16 -61 0 -67 2 -73 23 -10
38 -7 87 7 88 11 2 402 13 547 17 36 1 123 -3 194 -8z m110 -192 c-4 -24 -10
-47 -14 -51 -6 -7 -517 -26 -712 -27 -74 0 -108 19 -108 60 0 18 7 20 56 20
46 0 203 12 449 33 22 2 106 4 188 5 l147 2 -6 -42z m1573 -84 c223 -16 251
-19 243 -33 -19 -33 -202 -226 -297 -313 -845 -773 -2062 -980 -3123 -531
-368 156 -731 413 -1001 709 l-82 89 49 8 c78 13 609 11 964 -3 315 -13 326
-14 353 -36 39 -33 258 -102 360 -113 134 -15 883 -25 1023 -13 140 12 380 64
442 95 60 30 72 47 79 105 l6 51 71 4 c146 9 670 -2 913 -19z m-5789 -312 c8
-12 13 -24 11 -26 -2 -1 -55 -31 -118 -66 -108 -60 -113 -64 -87 -71 82 -22
131 -132 92 -207 -20 -38 -46 -59 -144 -117 -87 -51 -87 -51 -84 -89 2 -28 0
-37 -10 -34 -20 7 -120 190 -109 201 5 5 17 1 30 -12 12 -12 26 -21 32 -21 23
0 189 102 214 132 30 35 27 61 -11 96 -36 32 -81 28 -161 -14 -115 -61 -126
-71 -118 -110 11 -63 -21 -38 -74 58 -53 96 -61 140 -18 99 13 -11 29 -21 36
-21 16 0 342 183 389 218 28 20 33 29 28 52 -3 15 -2 31 2 35 7 7 70 -59 100
-103z m7961 -93 c115 -59 141 -65 141 -33 0 22 27 16 33 -8 8 -28 -16 -84 -42
-97 -11 -7 -32 -9 -47 -5 -24 6 -25 5 -15 -14 16 -30 14 -89 -5 -128 -32 -68
-111 -81 -155 -26 -20 25 -21 36 -16 140 l4 113 -29 15 c-40 21 -80 15 -95
-15 -10 -21 -8 -31 12 -65 16 -29 21 -47 15 -62 -12 -30 -39 -37 -66 -19 -69
45 32 265 121 265 13 0 78 -27 144 -61z m-507 -580 c217 -173 223 -177 248
-154 10 9 24 14 30 10 6 -4 -5 -28 -31 -66 -38 -54 -44 -58 -59 -44 -25 22
-30 19 -30 -20 0 -97 -116 -188 -215 -169 -95 17 -176 111 -177 203 0 83 65
171 127 171 26 0 16 14 -48 62 -83 62 -88 63 -121 33 -48 -44 -47 -14 2 72 46
80 47 81 68 65 12 -9 105 -83 206 -163z m-7193 -138 c76 -39 130 -129 117
-194 -8 -38 -53 -99 -71 -95 -7 2 -47 45 -89 96 -42 50 -81 92 -86 92 -16 0
-78 -80 -83 -108 -11 -56 43 -126 105 -139 33 -7 40 -14 29 -32 -6 -10 -17
-10 -47 -2 -152 42 -216 211 -123 324 17 21 47 46 67 57 49 26 131 26 181 1z
m6696 -503 c76 -38 124 -137 106 -217 -13 -57 -53 -115 -103 -148 -36 -24 -52
-28 -113 -28 -62 0 -77 4 -112 28 -149 103 -94 331 92 378 34 8 100 2 130 -13z
m-5567 -269 c97 -66 176 -126 174 -132 -2 -6 -18 -35 -35 -64 -35 -58 -65 -73
-51 -25 12 41 9 89 -6 107 -25 31 -139 107 -150 100 -11 -7 -107 -147 -116
-168 -6 -17 65 -57 102 -57 15 0 38 9 50 21 12 12 27 18 33 15 6 -4 -14 -44
-52 -101 -58 -89 -86 -113 -79 -69 10 62 5 78 -33 111 -21 18 -42 33 -47 33
-13 0 -108 -150 -108 -172 0 -10 14 -32 32 -48 21 -20 29 -33 22 -40 -10 -10
-244 143 -244 161 0 11 17 11 45 0 11 -5 28 -4 38 1 20 11 257 362 257 382 0
7 -9 21 -20 31 -19 17 -19 35 1 35 5 0 89 -54 187 -121z m4891 -12 c22 -35 41
-66 41 -70 0 -15 -24 -5 -57 23 -20 18 -45 30 -61 30 -27 0 -125 -50 -137 -70
-7 -11 204 -369 230 -390 13 -11 25 -11 58 -3 49 14 70 2 36 -20 -135 -87
-244 -145 -251 -134 -4 7 4 21 22 35 19 15 30 33 30 49 0 36 -216 393 -239
393 -25 0 -107 -55 -121 -80 -12 -22 -10 -62 5 -107 5 -16 3 -23 -6 -23 -8 0
-30 31 -51 69 l-36 69 241 146 c133 80 245 145 248 146 4 0 25 -28 48 -63z
m-4407 -461 l57 -25 -50 -116 c-60 -139 -68 -175 -45 -210 13 -19 25 -25 54
-25 57 0 96 49 152 190 l20 51 -24 24 c-42 42 -16 48 62 14 40 -18 72 -35 72
-39 0 -4 -27 -71 -60 -149 -33 -78 -60 -151 -60 -161 0 -11 9 -24 20 -30 11
-6 20 -17 20 -25 0 -11 -14 -9 -67 9 -66 23 -68 24 -65 55 2 30 0 32 -20 24
-40 -14 -105 -7 -142 17 -79 48 -85 118 -24 268 l43 104 -23 18 c-12 10 -22
24 -22 30 0 15 28 8 102 -24z m862 -238 c-12 -57 -11 -61 29 -71 35 -9 48 -29
27 -42 -5 -3 -25 -2 -45 4 -34 9 -35 9 -44 -27 -40 -152 -52 -209 -49 -236 3
-29 6 -31 41 -31 38 0 47 -11 25 -33 -17 -17 -84 -15 -123 4 -58 27 -61 52
-21 209 19 77 33 143 30 147 -3 4 -14 8 -25 8 -40 0 -15 31 39 50 30 9 61 25
70 34 9 9 25 16 35 16 16 0 18 -5 11 -32z m2266 -46 c33 -16 61 -53 74 -98 6
-20 -1 -23 -81 -43 -187 -47 -179 -40 -144 -118 40 -88 137 -97 210 -19 18 20
27 23 38 15 32 -27 -72 -112 -155 -125 -85 -13 -176 36 -208 113 -22 51 -18
141 9 187 50 89 173 131 257 88z m-1694 -115 c2 -2 -1 -59 -7 -127 -16 -173
-2 -220 66 -220 61 0 89 56 100 198 8 88 0 112 -36 112 -11 0 -19 7 -19 16 0
15 10 16 82 10 45 -4 83 -8 85 -10 2 -1 -2 -50 -8 -107 -5 -57 -9 -136 -7
-174 3 -64 5 -70 26 -73 12 -2 22 -10 22 -18 0 -11 -16 -14 -70 -14 -67 0 -70
1 -70 23 0 35 -9 38 -42 14 -38 -28 -131 -30 -171 -4 -55 36 -62 60 -62 207
l0 135 -27 13 c-15 7 -25 18 -22 25 3 10 23 11 80 6 42 -4 78 -9 80 -12z
m1019 -7 c15 -16 17 -26 9 -48 -8 -23 -15 -27 -44 -26 -19 0 -43 4 -52 8 -12
5 -22 0 -35 -20 -14 -23 -18 -48 -18 -130 0 -113 9 -134 56 -134 19 0 29 -5
29 -15 0 -9 -9 -15 -22 -15 -13 0 -66 -5 -118 -10 -69 -6 -96 -6 -102 3 -4 7
5 16 24 24 l31 13 -6 116 c-7 126 -20 165 -56 174 -44 10 -33 27 31 45 34 9
67 19 74 22 8 3 15 -11 19 -38 l7 -43 21 28 c45 62 118 84 152 46z"/>
<path d="M11405 12057 c-38 -50 -71 -94 -73 -98 -2 -4 28 -17 65 -29 37 -13
74 -25 81 -28 9 -3 12 23 12 109 0 63 -4 119 -8 125 -4 7 -35 -24 -77 -79z"/>
<path d="M5913 10312 c-23 -3 -93 -77 -93 -96 0 -10 168 -126 183 -126 3 0 18
20 33 45 20 35 25 53 20 78 -11 59 -83 109 -143 99z"/>
<path d="M6106 10179 c-14 -11 -39 -40 -55 -63 l-30 -43 104 -71 c57 -40 107
-72 112 -72 5 0 24 25 42 55 28 46 33 62 28 96 -12 93 -133 152 -201 98z"/>
<path d="M9614 8626 c-3 -8 -4 -27 -2 -43 2 -22 9 -29 31 -31 50 -6 75 38 41
72 -19 20 -63 21 -70 2z"/>
<path d="M9944 8626 c-3 -8 -4 -27 -2 -43 2 -22 9 -29 31 -31 50 -6 75 38 41
72 -19 20 -63 21 -70 2z"/>
<path d="M10274 8626 c-3 -8 -4 -27 -2 -43 2 -22 9 -29 31 -31 52 -6 76 38 39
71 -23 21 -61 22 -68 3z"/>
<path d="M9424 8286 c-10 -41 -1 -61 29 -64 35 -4 57 13 57 44 0 45 -75 62
-86 20z"/>
<path d="M9800 8284 c-14 -37 3 -64 41 -64 41 0 61 40 34 70 -26 29 -63 26
-75 -6z"/>
<path d="M10176 8284 c-4 -14 -4 -35 -1 -45 9 -27 62 -22 82 8 13 19 12 24 -6
42 -30 30 -67 28 -75 -5z"/>
<path d="M10554 8286 c-10 -41 -1 -61 29 -64 35 -4 57 13 57 44 0 45 -75 62
-86 20z"/>
<path d="M10316 7954 c-11 -41 1 -64 33 -64 27 0 61 26 61 47 0 18 -36 43 -62
43 -19 0 -27 -6 -32 -26z"/>
<path d="M10694 7956 c-10 -41 -1 -61 29 -64 35 -4 57 13 57 44 0 45 -75 62
-86 20z"/>
<path d="M9327 7903 c-7 -37 8 -63 37 -63 23 0 56 28 56 48 0 20 -31 42 -60
42 -22 0 -29 -5 -33 -27z"/>
<path d="M9704 7905 c-12 -49 17 -77 62 -57 15 8 24 20 24 35 0 31 -18 47 -52
47 -21 0 -29 -6 -34 -25z"/>
<path d="M9292 7548 c-7 -7 -12 -27 -12 -44 0 -40 29 -53 65 -30 31 20 32 50
3 70 -27 19 -40 20 -56 4z"/>
<path d="M9674 7552 c-34 -22 -21 -92 16 -92 20 0 60 32 60 48 0 27 -54 59
-76 44z"/>
<path d="M10423 7553 c-7 -2 -13 -22 -13 -43 0 -30 5 -40 20 -45 27 -9 70 19
70 45 0 31 -45 56 -77 43z"/>
<path d="M10804 7552 c-34 -22 -21 -92 16 -92 20 0 60 32 60 48 0 27 -54 59
-76 44z"/>
<path d="M9241 7216 c-17 -20 -10 -66 10 -79 13 -8 24 -6 43 6 35 23 35 64 0
77 -34 13 -39 13 -53 -4z"/>
<path d="M9623 7223 c-7 -2 -13 -22 -13 -43 0 -30 5 -40 20 -45 27 -9 70 19
70 45 0 31 -45 56 -77 43z"/>
<path d="M10459 7154 c-5 -15 -7 -35 -4 -45 12 -37 95 -15 95 25 0 20 -34 46
-59 46 -14 0 -25 -9 -32 -26z"/>
<path d="M10834 7156 c-10 -41 -1 -61 29 -64 35 -4 57 13 57 44 0 45 -75 62
-86 20z"/>
<path d="M7914 7903 c-15 -56 50 -87 82 -38 16 24 16 27 -1 45 -10 11 -31 20
-46 20 -23 0 -30 -6 -35 -27z"/>
<path d="M7926 7545 c-36 -36 -9 -93 39 -81 32 8 49 39 35 66 -6 11 -15 20
-20 20 -4 0 -15 3 -23 6 -8 3 -22 -2 -31 -11z"/>
<path d="M7916 7064 c-18 -46 7 -81 49 -70 32 8 49 39 35 66 -13 25 -75 28
-84 4z"/>
<path d="M11311 8012 c-27 -50 -2 -91 45 -75 54 18 49 75 -8 88 -20 5 -29 2
-37 -13z"/>
<path d="M11306 7624 c-4 -14 -4 -35 -1 -45 9 -27 62 -22 81 6 12 18 11 24 -2
43 -22 32 -70 30 -78 -4z"/>
<path d="M11306 7154 c-4 -14 -4 -35 -1 -45 9 -27 62 -22 82 8 13 19 12 24 -6
42 -30 30 -67 28 -75 -5z"/>
<path d="M12057 8043 c-11 -56 40 -86 76 -45 33 37 14 72 -39 72 -27 0 -33 -4
-37 -27z"/>
<path d="M12057 7573 c-11 -58 40 -85 78 -43 15 17 16 24 7 45 -9 20 -19 25
-46 25 -29 0 -34 -4 -39 -27z"/>
<path d="M12057 7103 c-7 -37 8 -63 37 -63 23 0 56 28 56 48 0 20 -31 42 -60
42 -22 0 -29 -5 -33 -27z"/>
<path d="M8294 7956 c-10 -41 -1 -61 29 -64 35 -4 57 13 57 44 0 45 -75 62
-86 20z"/>
<path d="M8294 7486 c-10 -41 -1 -61 29 -64 35 -4 57 13 57 44 0 45 -75 62
-86 20z"/>
<path d="M8296 7024 c-21 -54 10 -93 55 -71 30 16 37 56 13 74 -24 18 -61 16
-68 -3z"/>
<path d="M8670 7954 c-13 -34 3 -64 35 -64 26 0 55 24 55 45 0 22 -29 45 -56
45 -17 0 -27 -8 -34 -26z"/>
<path d="M8675 7498 c-2 -7 -5 -20 -8 -28 -14 -49 63 -72 85 -25 9 21 8 28 -7
45 -20 22 -63 27 -70 8z"/>
<path d="M8675 7028 c-13 -41 -8 -75 13 -80 52 -14 92 42 52 74 -26 21 -59 24
-65 6z"/>
<path d="M11687 8063 c-4 -3 -7 -21 -7 -40 0 -37 16 -49 55 -39 29 7 44 49 25
71 -13 15 -61 21 -73 8z"/>
<path d="M11687 7593 c-14 -14 -7 -74 9 -80 46 -17 93 37 64 73 -13 14 -61 19
-73 7z"/>
<path d="M11687 7123 c-14 -14 -7 -74 9 -80 46 -17 93 37 64 73 -13 14 -61 19
-73 7z"/>
<path d="M14132 5135 c6 -71 19 -95 52 -95 32 0 46 19 46 62 0 33 -5 42 -42
68 -22 16 -45 30 -51 30 -6 0 -8 -25 -5 -65z"/>
<path d="M13556 4569 c-20 -16 -26 -29 -26 -60 0 -32 7 -48 41 -84 40 -44 127
-95 160 -95 10 0 30 11 46 24 42 36 39 93 -7 142 -50 53 -119 94 -156 94 -17
0 -43 -9 -58 -21z"/>
<path d="M6422 4493 c-14 -5 60 -101 86 -111 37 -14 57 72 24 101 -18 16 -81
22 -110 10z"/>
<path d="M13010 3997 c-64 -32 -59 -111 11 -191 70 -80 135 -98 179 -51 31 33
30 81 -3 137 -32 54 -62 83 -109 103 -45 18 -46 18 -78 2z"/>
<path d="M11095 2983 c-34 -34 -47 -98 -17 -89 9 2 43 12 74 20 47 13 56 20
51 34 -18 50 -74 69 -108 35z"/>
</g>
</svg>
